Coordinates
version=1
nRows=10
nColumns=40
inDegrees=yes
endheader
time	pelvis_tilt	pelvis_list	pelvis_rotation	pelvis_tx	pelvis_ty	pelvis_tz	hip_flexion_r	hip_adduction_r	hip_rotation_r	knee_angle_r	knee_angle_r_beta	ankle_angle_r	subtalar_angle_r	mtp_angle_r	hip_flexion_l	hip_adduction_l	hip_rotation_l	knee_angle_l	knee_angle_l_beta	ankle_angle_l	subtalar_angle_l	mtp_angle_l	lumbar_extension	lumbar_bending	lumbar_rotation	arm_flex_r	arm_add_r	arm_rot_r	elbow_flex_r	pro_sup_r	wrist_flex_r	wrist_dev_r	arm_flex_l	arm_add_l	arm_rot_l	elbow_flex_l	pro_sup_l	wrist_flex_l	wrist_dev_l
1760624909.80971503	      8.43693983	     -2.14044942	     -0.13497218	      0.19252349	      0.85938020	      0.00042946	     80.00000000	     -7.00000000	      0.00000000	     80.00000000	      1.39626340	      0.00000000	      0.00000000	      0.00000000	     80.00000000	     -7.00000000	      0.00000000	     80.00000000	      1.39626340	      0.00000000	      0.00000000	      0.00000000	    -16.57295063	      0.23831205	      3.13367157	      4.93200836	     -1.52370467	      8.80941338	      0.00000000	      5.43887016	    -70.00000021	    -24.99999983	      6.18580346	     -0.67154120	      3.18934233	      0.00000000	     23.12072295	    -70.00000021	    -24.99999983
1760624909.81971502	      8.44112411	     -2.13930426	     -0.13990558	      0.19249758	      0.85931330	      0.00041732	     80.00000000	     -7.00000000	      0.00000000	     80.00000000	      1.39626340	      0.00000000	      0.00000000	      0.00000000	     80.00000000	     -7.00000000	      0.00000000	     80.00000000	      1.39626340	      0.00000000	      0.00000000	      0.00000000	    -16.57150014	      0.24103940	      3.12925232	      4.92937240	     -1.46657089	      8.81134639	      0.00000000	      5.43489450	    -70.00000021	    -24.99999983	      6.18669676	     -0.62613157	      3.18557015	      0.00000000	     23.12383161	    -70.00000021	    -24.99999983
1760624909.82971501	      8.44471264	     -2.14156319	     -0.14350788	      0.19245548	      0.85928300	      0.00044408	     80.00000000	     -7.00000000	      0.00000000	     80.00000000	      1.39626340	      0.00000000	      0.00000000	      0.00000000	     80.00000000	     -7.00000000	      0.00000000	     80.00000000	      1.39626340	      0.00000000	      0.00000000	      0.00000000	    -16.57082839	      0.24034433	      3.12483525	      4.92718038	     -1.41162999	      8.81457882	      0.00000000	      5.43142403	    -70.00000021	    -24.99999983	      6.18473111	     -0.58658325	      3.18199075	      0.00000000	     23.12703042	    -70.00000021	    -24.99999983
1760624909.83971500	      8.44961538	     -2.14495716	     -0.14767228	      0.19243320	      0.85926750	      0.00048754	     80.00000000	     -7.00000000	      0.00000000	     80.00000000	      1.39626340	      0.00000000	      0.00000000	      0.00000000	     80.00000000	     -7.00000000	      0.00000000	     80.00000000	      1.39626340	      0.00000000	      0.00000000	      0.00000000	    -16.56925276	      0.23857159	      3.11963651	      4.92408893	     -1.36840333	      8.81922903	      0.00000000	      5.42836610	    -70.00000021	    -24.99999983	      6.17959060	     -0.56100719	      3.17903634	      0.00000000	     23.13096025	    -70.00000021	    -24.99999983
1760624909.84971499	      8.45534199	     -2.14914658	     -0.15210865	      0.19242783	      0.85927780	      0.00051903	     80.00000000	     -7.00000000	      0.00000000	     80.00000000	      1.39626340	      0.00000000	      0.00000000	      0.00000000	     80.00000000	     -7.00000000	      0.00000000	     80.00000000	      1.39626340	      0.00000000	      0.00000000	      0.00000000	    -16.56737517	      0.23636695	      3.11449050	      4.91789574	     -1.32475259	      8.82619011	      0.00000000	      5.42519650	    -70.00000021	    -24.99999983	      6.16803754	     -0.53925399	      3.17560963	      0.00000000	     23.13579160	    -70.00000021	    -24.99999983
1760624909.85971498	      8.45698847	     -2.14743732	     -0.15396337	      0.19232849	      0.85930861	      0.00050667	     80.00000000	     -7.00000000	      0.00000000	     80.00000000	      1.39626340	      0.00000000	      0.00000000	      0.00000000	     80.00000000	     -7.00000000	      0.00000000	     80.00000000	      1.39626340	      0.00000000	      0.00000000	      0.00000000	    -16.56623469	      0.23859398	      3.11338305	      4.91567892	     -1.32054211	      8.82654439	      0.00000000	      5.42489870	    -70.00000021	    -24.99999983	      6.16730435	     -0.53835995	      3.17544305	      0.00000000	     23.13616542	    -70.00000021	    -24.99999983
1760624909.86971498	      8.46513952	     -2.14727341	     -0.16391746	      0.19233861	      0.85932917	      0.00051069	     80.00000000	     -7.00000000	      0.00000000	     80.00000000	      1.39626340	      0.00000000	      0.00000000	      0.00000000	     80.00000000	     -7.00000000	      0.00000000	     80.00000000	      1.39626340	      0.00000000	      0.00000000	      0.00000000	    -16.56135156	      0.24266421	      3.10572200	      4.90023722	     -1.26527388	      8.83180120	      0.00000000	      5.42273086	    -70.00000021	    -24.99999983	      6.15603331	     -0.50916085	      3.17233858	      0.00000000	     23.13952512	    -70.00000021	    -24.99999983
1760624909.87971497	      8.47029301	     -2.15160624	     -0.16558732	      0.19237747	      0.85935560	      0.00060040	     80.00000000	     -7.00000000	      0.00000000	     80.00000000	      1.39626340	      0.00000000	      0.00000000	      0.00000000	     80.00000000	     -7.00000000	      0.00000000	     80.00000000	      1.39626340	      0.00000000	      0.00000000	      0.00000000	    -16.55987972	      0.23903292	      3.10401672	      4.87854918	     -1.23707878	      8.84219838	      0.00000000	      5.42156777	    -70.00000021	    -24.99999983	      6.13509444	     -0.50299600	      3.16891560	      0.00000000	     23.14392965	    -70.00000021	    -24.99999983
1760624909.88971496	      8.47240507	     -2.15081701	     -0.16621310	      0.19229894	      0.85937304	      0.00057024	     80.00000000	     -7.00000000	      0.00000000	     80.00000000	      1.39626340	      0.00000000	      0.00000000	      0.00000000	     80.00000000	     -7.00000000	      0.00000000	     80.00000000	      1.39626340	      0.00000000	      0.00000000	      0.00000000	    -16.55822329	      0.24006994	      3.10400473	      4.87702861	     -1.23475037	      8.84287950	      0.00000000	      5.42156894	    -70.00000021	    -24.99999983	      6.13390761	     -0.50331304	      3.16878287	      0.00000000	     23.14420986	    -70.00000021	    -24.99999983
1760624909.89971495	      8.47434370	     -2.14908157	     -0.16751540	      0.19222349	      0.85940236	      0.00055189	     80.00000000	     -7.00000000	      0.00000000	     80.00000000	      1.39626340	      0.00000000	      0.00000000	      0.00000000	     80.00000000	     -7.00000000	      0.00000000	     80.00000000	      1.39626340	      0.00000000	      0.00000000	      0.00000000	    -16.55678054	      0.24217683	      3.10354734	      4.87390663	     -1.23073727	      8.84358184	      0.00000000	      5.42152690	    -70.00000021	    -24.99999983	      6.13267725	     -0.50283925	      3.16859938	      0.00000000	     23.14450598	    -70.00000021	    -24.99999983
